<?xml version="1.0" encoding="UTF-8"?><svg id="Layer_1" xmlns="http://www.w3.org/2000/svg" viewBox="0 0 664.16 134.94"><defs><style>.cls-1{fill:#003;}.cls-2{fill:#eb3300;}</style></defs><path class="cls-2" d="M71.2,38.37c-4.31,0-7.75,.85-10.92,2.13v2.5c2.43-.72,5.63-1.23,9.83-1.23,15.06,0,24.83,10.57,24.83,27.23,0,20.26-10.72,29.22-23.8,31.8v3.01c18.86-3.35,32.53-17.89,32.53-34.81,0-19.63-17.77-30.62-32.47-30.62m-3.02,82.99c-.8-1.08-.93-2.04-.93-3.58V60.21h-6.85l-10.78,7.19v1.99h8.78v31.83c-12.96-2.58-28.72-17.52-28.72-38.38,0-22.48,18.87-38.11,34.18-38.11,8.77,0,12.69,3.59,15.59,7.85h2.21l-.6-7.99c-4.19-1.82-11.68-3.44-18.21-3.44-23.02,0-41.69,18.66-41.69,41.68,0,21.52,16.3,39.22,37.23,41.44v13.49c0,1.54-.13,2.5-.93,3.58-29.93-2.72-53.39-27.87-53.39-58.51C4.07,30.38,30.38,4.07,62.84,4.07s58.77,26.31,58.77,58.77c0,30.66-23.48,55.82-53.43,58.52M62.84,0C28.19,0,0,28.19,0,62.84c0,32.34,24.56,59.04,56,62.46,0,0,.14,.02,.26,.03,2.17,.23,4.36,.35,6.59,.35s4.39-.12,6.54-.34c.16-.02,.31-.04,.31-.04,31.44-3.43,55.99-30.13,55.99-62.46C125.68,28.19,97.49,0,62.84,0"/><path class="cls-1" d="M433.73,17.07h-35.09v.16c5.28,5.12,6.37,7.45,6.37,12.73V97.35c0,5.28-1.09,7.61-6.37,12.73v.15h35.09v-.15c-5.43-5.28-6.68-7.45-6.68-12.73v-25.15h11.34c19.56,0,36.49-8.07,36.49-28.57s-17.86-26.55-41.15-26.55Zm2.17,53.43h-8.85V18.77h2.64c18.17,0,22.05,5.76,22.05,26.41,0,19.26-2.95,25.32-15.84,25.32Zm141.38-30.45c-21.43,0-33.69,15.22-33.69,36.03s11.49,35.71,33.54,35.71c16.61,0,26.71-9.16,29.19-22.21l-.31-.16c-3.73,6.52-10.71,10.56-20.5,10.56-15.53,0-20.65-10.25-20.65-27.02v-.62h41.93c.16-1.09,.16-2.33,.16-3.57,0-16.61-10.4-28.73-29.66-28.73Zm9.01,31.37h-.01v-1.15h-21.42v-6.92c0-13.82,2.33-22.36,11.49-22.36,8.08,0,9.94,6.37,9.94,18.01v12.42Zm69.95-31.37c-6.05,0-12.73,3.73-18.32,13.51l-.62-11.96h-26.86v.15c5.12,5.12,6.21,7.14,6.21,12.27v44.41c0,4.81-1.09,6.83-5.9,11.65v.15h33.54v-.15c-5.28-4.97-6.36-6.68-6.36-11.65V54.34c1.4-.62,2.95-.93,5.12-.93,4.04,0,8.54,1.55,20.96,7.14h.16v-17.86c-1.86-1.55-4.82-2.64-7.92-2.64Zm-147.99,0c-21.43,0-33.69,15.22-33.69,36.03s11.49,35.71,33.54,35.71c16.61,0,26.71-9.16,29.19-22.21l-.31-.16c-3.73,6.52-10.71,10.56-20.5,10.56-15.53,0-20.65-10.25-20.65-27.02v-.62h41.92c.16-1.09,.16-2.33,.16-3.57,0-16.61-10.4-28.73-29.66-28.73Zm9.01,30.22h-21.43v-6.92c0-13.82,2.33-22.36,11.49-22.36,8.07,0,9.94,6.37,9.94,18.01v11.27Zm-353.86-3.36c4.5,4.82,5.44,6.84,5.44,11.65v30.93c-1.86,.31-4.2,.47-6.21,.47-21.28,0-24.39-14.46-24.39-45.99s3.73-46.3,23.61-46.3c6.6,0,14.12,1.34,29.29,11.6l.16,.09h.16l-1.02-12.1c-7.64-.97-17.13-1.75-24.54-1.75-31.38,0-52.19,18.48-52.19,48.62s18.95,47.69,49.08,47.69c9.94,0,20.35-1.86,27.49-3.57v-29.67c0-4.81,.93-6.83,5.44-11.65v-.15h-32.31v.15Zm206.27-25.16c6.65,3.29,10.15,7.22,10.19,11.73,.02,2.33-.58,5.01-1.82,9.21l-11.36,38.03-13.78-43.59c-1.24-3.88-1.56-5.75-1.56-7.61,0-2.48,.93-4.66,4.2-7.77v-.16h-33.4v.16c4.66,5.9,6.21,9.32,8.54,16.78l16.47,51.72h16.69l-.62,2.17c-1.86,6.37-6.96,8.23-16.69,8.23-3.88,0-6.99-.16-9.94-.47v11.65c2.48,1.86,6.37,3.11,11.03,3.11,7.61,0,12.27-4.04,14.6-11.65l17.86-60.27c2.95-10.25,4.35-13.36,10.25-21.28v-.16h-20.66v.16Zm-76.81,11.8l-.62-11.96h-26.87v.16c5.13,5.13,6.21,7.14,6.21,12.27v44.42c0,4.82-1.09,6.83-5.9,11.65v.16h33.55v-.16c-5.28-4.97-6.37-6.68-6.37-11.65V54.32c1.4-.62,2.95-.93,5.13-.93,4.04,0,8.54,1.55,20.97,7.15h.16v-17.86c-1.86-1.55-4.82-2.64-7.92-2.64-6.06,0-12.74,3.73-18.33,13.52Zm-58.63-13.52c-10.56,0-21.75,2.8-31.22,6.21l-.73,12.34h.15c16.93-15.22,21.23-17.31,26.05-17.31,5.28,0,7.61,3.42,7.61,9.47v19.42c-22.83,4.97-36.81,8.23-36.81,23.3,0,11.96,8.23,18.33,18.95,18.33,8.54,0,14.6-4.66,17.86-9.32l.15,7.77h21.13V56.97c0-11.18-7.77-16.93-23.14-16.93Zm1.86,60.47c-2.02,2.18-4.97,3.73-8.23,3.73-5.9,0-7.77-3.15-7.77-14.02,0-11.65,2.95-16.15,16-18.64v28.93Z"/></svg>