<svg xmlns="http://www.w3.org/2000/svg" viewBox="3324 248.715 71.32 17.785"><defs><style>.a{fill:#000;}</style></defs><g transform="translate(3324 248.675)"><path class="a" d="M72.673,8.266a7.059,7.059,0,0,1,1.494,4.594c0,3.989-2.637,6.469-6.865,6.469s-6.723-2.458-6.723-6.655c0-4.041,2.667-6.573,6.865-6.573A6.211,6.211,0,0,1,72.673,8.266Zm-8.5,4.482c0,2.51,1.106,3.832,3.219,3.832s3.145-1.292,3.145-3.937S69.454,8.8,67.318,8.8,64.173,10.119,64.173,12.748Z" transform="translate(-15.329 -1.503)"/><path class="a" d="M86.282,6.32c2.062,0,2.906.239,3.8,1.031a5.007,5.007,0,0,1,1.345,3.907v7.918H87.888V10.862c0-1.292-.523-1.793-1.823-1.793H83V19.175H79.47V6.32Z" transform="translate(-20.109 -1.559)"/><path class="a" d="M57.173,7.47V4.721H53.9V0H50.36V4.721H46.625L44.295,7.813l1.957,2.644L48.493,7.47h1.882v5.281c0,2.084.261,3.033,1.135,3.854a4.089,4.089,0,0,0,3.115.979h2.562V14.835H55.776a1.823,1.823,0,0,1-1.584-.642c-.239-.344-.291-.747-.291-2.062V7.47Zm-12.893,7.1,2.2,2.988h3.937l-4.161-5.692Z" transform="translate(-11.204 0.04)"/><path class="a" d="M26.8,6.32h3.541V19.175H23.4c-2.062,0-2.906-.239-3.8-1.031a5.007,5.007,0,0,1-1.345-3.907V6.32H21.8v8.261a1.628,1.628,0,0,0,1.688,1.852H26.8Z" transform="translate(-4.618 -1.559)"/><path class="a" d="M6.678,4.721c2.353,0,3.929.635,5.072,2.009a6.528,6.528,0,0,1,1.374,4.25A6.336,6.336,0,0,1,10.3,16.627c-1.188.747-2.241.949-4.542.949H0V0H3.541V4.721ZM3.541,14.835H6.155c2.084,0,3.354-1.427,3.354-3.735S8.4,7.47,6.148,7.47H3.541Z" transform="translate(0 0.04)"/><path class="a" d="M38.4,6.36l4.833,6.424L38.4,19.215H34.46l4.833-6.431L34.46,6.36Z" transform="translate(-8.72 -1.599)"/></g></svg>